<svg width="12" height="12" viewBox="0 0 12 12" fill="none" xmlns="http://www.w3.org/2000/svg">
<path d="M10.5 10.5L8.3285 8.3285M8.3285 8.3285C8.69994 7.95705 8.99459 7.51608 9.19561 7.03077C9.39663 6.54545 9.5001 6.0253 9.5001 5.5C9.5001 4.9747 9.39663 4.45454 9.19561 3.96922C8.99459 3.48391 8.69994 3.04294 8.3285 2.6715C7.95705 2.30005 7.51608 2.00541 7.03077 1.80438C6.54545 1.60336 6.0253 1.49989 5.5 1.49989C4.9747 1.49989 4.45454 1.60336 3.96922 1.80438C3.48391 2.00541 3.04294 2.30005 2.6715 2.6715C1.92133 3.42166 1.49989 4.4391 1.49989 5.5C1.49989 6.56089 1.92133 7.57833 2.6715 8.3285C3.42166 9.07866 4.4391 9.5001 5.5 9.5001C6.56089 9.5001 7.57833 9.07866 8.3285 8.3285Z" stroke="black" stroke-linecap="round" stroke-linejoin="round"/>
</svg>
